<?xml version="1.0" ?><!DOCTYPE svg  PUBLIC '-//W3C//DTD SVG 1.1//EN'  'http://www.w3.org/Graphics/SVG/1.1/DTD/svg11.dtd'><svg height="512px" style="enable-background:new 0 0 512 512;" version="1.1" viewBox="0 0 512 512" width="512px" xml:space="preserve" xmlns="http://www.w3.org/2000/svg" xmlns:xlink="http://www.w3.org/1999/xlink"><style type="text/css">
<![CDATA[
	.st0{display:inline;}
	.st1{fill:none;stroke:#000000;stroke-width:16;stroke-linecap:round;stroke-linejoin:round;stroke-miterlimit:10;}
	.st2{display:none;}
]]>
</style><g class="st2" id="layer"><g class="st0"><polyline class="st1" points="101,256 252,407 101,256 252,105   "/><polyline class="st1" points="260,256 411,407 260,256 411,105   "/></g></g><g id="layer_copy"><g><path d="M252,415c-2.047,0-4.095-0.781-5.657-2.343l-151-151C93.781,260.095,93,258.048,93,256c0-2.047,0.781-4.095,2.343-5.657    l151-151c3.124-3.124,8.189-3.124,11.314,0c3.124,3.124,3.124,8.189,0,11.313L112.314,256l145.343,145.343    c1.562,1.563,2.343,3.609,2.343,5.657s-0.781,4.095-2.343,5.657C256.095,414.219,254.047,415,252,415z"/></g><g><path d="M411,415c-2.048,0-4.095-0.781-5.657-2.343l-151-151C252.781,260.095,252,258.048,252,256    c0-2.047,0.781-4.095,2.343-5.657l151-151c3.125-3.124,8.189-3.124,11.314,0c3.124,3.124,3.124,8.189,0,11.313L271.313,256    l145.344,145.343c1.562,1.563,2.343,3.609,2.343,5.657s-0.781,4.095-2.343,5.657C415.095,414.219,413.048,415,411,415z"/></g></g></svg>