<?xml version="1.0" encoding="UTF-8"?>
<svg xmlns="http://www.w3.org/2000/svg" xmlns:xlink="http://www.w3.org/1999/xlink" width="50pt" height="50pt" viewBox="0 0 50 50" version="1.1">
<g id="surface1">
<path style=" stroke:none;fill-rule:nonzero;fill:rgb(0%,0%,0%);fill-opacity:1;" d="M 23.449219 0.515625 C 19.652344 0.84375 16.679688 1.675781 13.605469 3.289062 C 9.136719 5.617188 5.339844 9.46875 3.078125 13.976562 C 1.324219 17.472656 0.5 20.984375 0.5 25 C 0.5 29.007812 1.324219 32.535156 3.070312 36.011719 C 5.074219 39.992188 8.425781 43.625 12.28125 45.972656 C 20.324219 50.882812 30.636719 50.660156 38.527344 45.417969 C 48.714844 38.640625 52.359375 25.507812 47.117188 14.453125 C 45.886719 11.894531 44.414062 9.816406 42.292969 7.6875 C 38.375 3.765625 33.773438 1.484375 28.242188 0.699219 C 27.246094 0.554688 24.273438 0.441406 23.449219 0.515625 Z M 27.523438 7.925781 C 35.96875 9.191406 42.21875 16.429688 42.238281 24.96875 C 42.246094 30.835938 39.324219 36.222656 34.375 39.472656 C 28.929688 43.039062 21.761719 43.195312 16.171875 39.839844 C 11.667969 37.144531 8.6875 32.695312 7.898438 27.492188 C 7.632812 25.71875 7.699219 23.285156 8.054688 21.585938 C 9.050781 16.832031 11.90625 12.757812 16.019531 10.238281 C 17.945312 9.046875 20.535156 8.148438 22.875 7.851562 C 24.050781 7.695312 26.210938 7.734375 27.523438 7.925781 Z M 27.523438 7.925781 "/>
<path style=" stroke:none;fill-rule:nonzero;fill:rgb(0%,0%,0%);fill-opacity:1;" d="M 12.242188 22.652344 C 11.113281 23.003906 10.726562 24.253906 11.515625 25.039062 C 11.839844 25.363281 12.070312 25.46875 13.382812 25.882812 C 13.996094 26.074219 14.113281 26.140625 14.199219 26.378906 C 14.273438 26.617188 14.257812 26.675781 14.027344 26.878906 C 13.546875 27.289062 12.816406 27.089844 12.609375 26.484375 L 12.484375 26.148438 L 11.707031 26.207031 C 11.285156 26.246094 10.929688 26.285156 10.910156 26.292969 C 10.824219 26.371094 11.121094 27.148438 11.34375 27.40625 C 11.871094 28.019531 13.136719 28.304688 14.296875 28.066406 C 14.785156 27.972656 14.9375 27.886719 15.3125 27.492188 C 15.808594 26.984375 15.925781 26.640625 15.828125 26.007812 C 15.714844 25.210938 15.347656 24.941406 13.777344 24.480469 C 12.664062 24.15625 12.464844 23.984375 12.761719 23.65625 C 13.097656 23.292969 14.054688 23.511719 14.054688 23.953125 C 14.054688 24.117188 14.140625 24.136719 14.871094 24.136719 C 15.753906 24.136719 15.78125 24.117188 15.578125 23.589844 C 15.433594 23.207031 15.121094 22.890625 14.679688 22.6875 C 14.207031 22.46875 12.886719 22.449219 12.242188 22.652344 Z M 12.242188 22.652344 "/>
<path style=" stroke:none;fill-rule:nonzero;fill:rgb(0%,0%,0%);fill-opacity:1;" d="M 16.449219 23.273438 L 16.449219 23.945312 L 18.175781 23.945312 L 18.175781 28.066406 L 19.804688 28.066406 L 19.804688 23.945312 L 21.53125 23.945312 L 21.53125 22.601562 L 16.449219 22.601562 Z M 16.449219 23.273438 "/>
<path style=" stroke:none;fill-rule:nonzero;fill:rgb(0%,0%,0%);fill-opacity:1;" d="M 22.507812 24.730469 C 22.066406 25.910156 21.609375 27.136719 21.484375 27.464844 L 21.253906 28.066406 L 23.046875 28.066406 L 23.132812 27.605469 L 23.210938 27.15625 L 25.210938 27.15625 L 25.355469 27.605469 L 25.5 28.066406 L 27.253906 28.066406 L 26.238281 25.355469 L 25.210938 22.652344 L 24.253906 22.621094 L 23.304688 22.601562 Z M 24.550781 24.902344 C 24.683594 25.34375 24.789062 25.757812 24.789062 25.832031 C 24.789062 25.917969 24.628906 25.957031 24.214844 25.957031 C 23.804688 25.957031 23.660156 25.929688 23.6875 25.832031 C 23.707031 25.777344 23.839844 25.335938 23.976562 24.875 C 24.121094 24.40625 24.253906 24.039062 24.273438 24.070312 C 24.292969 24.089844 24.417969 24.460938 24.550781 24.902344 Z M 24.550781 24.902344 "/>
<path style=" stroke:none;fill-rule:nonzero;fill:rgb(0%,0%,0%);fill-opacity:1;" d="M 27.859375 25.335938 L 27.859375 28.066406 L 29.582031 28.066406 L 29.582031 25.863281 L 29.824219 25.863281 C 30.167969 25.863281 30.425781 26.179688 30.925781 27.195312 L 31.347656 28.066406 L 33.226562 28.066406 L 33.128906 27.835938 C 32.738281 26.792969 32.140625 25.929688 31.691406 25.746094 C 31.453125 25.652344 31.460938 25.640625 31.84375 25.507812 C 33.089844 25.085938 33.121094 23.042969 31.894531 22.699219 C 31.703125 22.652344 30.714844 22.601562 29.707031 22.601562 L 27.859375 22.601562 Z M 30.65625 23.667969 C 30.914062 23.734375 31.039062 23.828125 31.078125 23.992188 C 31.222656 24.550781 30.914062 24.808594 30.089844 24.808594 L 29.582031 24.808594 L 29.582031 24.253906 C 29.582031 23.945312 29.613281 23.65625 29.652344 23.628906 C 29.746094 23.53125 30.253906 23.550781 30.65625 23.667969 Z M 30.65625 23.667969 "/>
<path style=" stroke:none;fill-rule:nonzero;fill:rgb(0%,0%,0%);fill-opacity:1;" d="M 33.417969 23.273438 L 33.417969 23.945312 L 35.140625 23.945312 L 35.140625 28.066406 L 36.773438 28.066406 L 36.773438 23.945312 L 38.59375 23.945312 L 38.59375 22.601562 L 33.417969 22.601562 Z M 33.417969 23.273438 "/>
</g>
</svg>
